<?xml version="1.0" encoding="UTF-8"?>
<svg width="24px" height="24px" viewBox="0 0 24 24" version="1.1" xmlns="http://www.w3.org/2000/svg" xmlns:xlink="http://www.w3.org/1999/xlink">
    <title>icons/categories-gray</title>
    <defs>
        <path d="M7.2,6.4 L22.8,6.4 C23.4624,6.4 24,5.8624 24,5.2 C24,4.5376 23.4624,4 22.8,4 L7.2,4 C6.5376,4 6,4.5376 6,5.2 C6,5.8624 6.5376,6.4 7.2,6.4 Z M7.2,13.6 L22.8,13.6 C23.4624,13.6 24,13.0624 24,12.4 C24,11.7376 23.4624,11.2 22.8,11.2 L7.2,11.2 C6.5376,11.2 6,11.7376 6,12.4 C6,13.0624 6.5376,13.6 7.2,13.6 Z M7.2,20.8 L22.8,20.8 C23.4624,20.8 24,20.2624 24,19.6 C24,18.9376 23.4624,18.4 22.8,18.4 L7.2,18.4 C6.5376,18.4 6,18.9376 6,19.6 C6,20.2624 6.5376,20.8 7.2,20.8 Z M1.2,6.4 C1.8624,6.4 2.4,5.8624 2.4,5.2 C2.4,4.5376 1.8624,4 1.2,4 C0.5376,4 0,4.5376 0,5.2 C0,5.8624 0.5376,6.4 1.2,6.4 Z M1.2,13.6 C1.8624,13.6 2.4,13.0624 2.4,12.4 C2.4,11.7376 1.8624,11.2 1.2,11.2 C0.5376,11.2 0,11.7376 0,12.4 C0,13.0624 0.5376,13.6 1.2,13.6 Z M1.2,20.8 C1.8624,20.8 2.4,20.2624 2.4,19.6 C2.4,18.9376 1.8624,18.4 1.2,18.4 C0.5376,18.4 0,18.9376 0,19.6 C0,20.2624 0.5376,20.8 1.2,20.8 Z" id="path-1"></path>
    </defs>
    <g id="icons/categories-gray" stroke="none" stroke-width="1" fill="none" fill-rule="evenodd">
        <mask id="mask-2" fill="white">
            <use xlink:href="#path-1"></use>
        </mask>
        <use id="Shape" fill="#BFBFBF" fill-rule="nonzero" xlink:href="#path-1"></use>
    </g>
</svg>