<?xml version="1.0" encoding="UTF-8"?>
<svg width="24px" height="24px" viewBox="0 0 24 24" version="1.1" xmlns="http://www.w3.org/2000/svg" xmlns:xlink="http://www.w3.org/1999/xlink">
    <title>icons/country-gray</title>
    <defs>
        <path d="M17.4010909,10.9090909 C17.1676364,7.97454545 16.1989091,5.06945455 14.484,2.49818182 C16.1967273,2.94436364 17.7272727,3.84218182 18.9425455,5.05745455 C20.4785455,6.59345455 21.5072727,8.63345455 21.7581818,10.9090909 L17.4010909,10.9090909 Z M14.4861818,21.5007273 C16.104,19.0723636 17.1447273,16.2065455 17.3978182,13.0909091 L21.7581818,13.0909091 C21.5072727,15.3665455 20.4785455,17.4065455 18.9425455,18.9425455 C17.7283636,20.1567273 16.1978182,21.0545455 14.4861818,21.5007273 Z M6.59890909,13.0909091 C6.83236364,16.0254545 7.80109091,18.9305455 9.516,21.5018182 C7.80327273,21.0556364 6.27272727,20.1578182 5.05745455,18.9425455 C3.52145455,17.4065455 2.49272727,15.3665455 2.24181818,13.0909091 L6.59890909,13.0909091 Z M9.51381818,2.49927273 C7.89709091,4.92763636 6.85636364,7.79345455 6.60218182,10.9090909 L2.24181818,10.9090909 C2.49272727,8.63345455 3.52145455,6.59345455 5.05745455,5.05745455 C6.27272727,3.84327273 7.80218182,2.94545455 9.51381818,2.49927273 Z M12.0043636,0 C12.0043636,0 12.0043636,0 12.0043636,0 C8.68363636,0.00109090909 5.68363636,1.34509091 3.51490909,3.51490909 C1.344,5.68472727 0,8.68690909 0,12 C0,15.3130909 1.344,18.3152727 3.51490909,20.4850909 C5.68363636,22.6549091 8.68363636,23.9989091 11.9956364,24 C11.9956364,24 11.9956364,24 11.9956364,24 C15.3163636,23.9989091 18.3152727,22.6549091 20.4850909,20.4850909 C22.656,18.3152727 24,15.3130909 24,12 C24,8.68690909 22.656,5.68472727 20.4850909,3.51490909 C18.3163636,1.34509091 15.3163636,0.00109090909 12.0043636,0 Z M15.2138182,13.0909091 C14.9389091,16.1323636 13.7781818,18.9381818 12.0010909,21.2192727 C10.1149091,18.7963636 9.04909091,15.9632727 8.78836364,13.0909091 L15.2138182,13.0909091 Z M11.9989091,2.78072727 C13.8850909,5.20363636 14.9509091,8.03672727 15.2116364,10.9090909 L8.78618182,10.9090909 C9.06109091,7.86763636 10.2218182,5.06181818 11.9989091,2.78072727 L11.9989091,2.78072727 Z" id="path-1"></path>
    </defs>
    <g id="icons/country-gray" stroke="none" stroke-width="1" fill="none" fill-rule="evenodd">
        <mask id="mask-2" fill="white">
            <use xlink:href="#path-1"></use>
        </mask>
        <use id="Shape" fill="#BFBFBF" fill-rule="nonzero" xlink:href="#path-1"></use>
    </g>
</svg>