<?xml version="1.0" encoding="UTF-8"?>
<svg width="24px" height="24px" viewBox="0 0 24 24" version="1.1" xmlns="http://www.w3.org/2000/svg" xmlns:xlink="http://www.w3.org/1999/xlink">
    <title>icons/download-gray</title>
    <defs>
        <path d="M10.9824253,11.9880149 L10.9824253,18.5569084 L8.69538118,16.2698643 C8.30539676,15.8798799 7.67404092,15.8798799 7.2850539,16.2698643 C6.89606689,16.6598487 6.89506949,17.2912046 7.2850539,17.6801916 L11.2746643,21.669802 C11.3664253,21.761563 11.4761396,21.8353708 11.5978227,21.8862383 C11.8421864,21.986976 12.1174695,21.986976 12.3618331,21.8862383 C12.4795266,21.8373656 12.5892409,21.7655526 12.6849916,21.669802 L16.674602,17.6801916 C17.0645864,17.2902071 17.0645864,16.6588513 16.674602,16.2698643 C16.2846175,15.8808773 15.6532617,15.8798799 15.2642747,16.2698643 L12.9772305,18.5569084 L12.9772305,11.9880149 C12.9772305,11.4374487 12.5303942,10.9906123 11.9798279,10.9906123 C11.4292617,10.9906123 10.9824253,11.4374487 10.9824253,11.9880149 Z M21.4102695,18.8780721 C22.76175,17.9275474 23.6005656,16.5172201 23.8638799,15.0101448 C24.1271942,13.5030695 23.8140097,11.8922643 22.8634851,10.5407838 C22.0406279,9.36983312 20.8706747,8.58288247 19.5850227,8.22282014 C19.060389,8.07620195 18.5158071,8.00039936 17.9682331,7.99840455 L17.4465916,7.99840455 C16.7264669,5.94575001 15.3151422,4.29804092 13.5497396,3.25276299 C11.5738851,2.08380715 9.14919936,1.66789027 6.74845131,2.28328767 C4.34770325,2.89868507 2.42171884,4.43269027 1.25276299,6.40854481 C0.0838071496,8.38439936 -0.332109734,10.8090851 0.283287669,13.2098331 C0.653324033,14.6520773 1.35549546,15.9277552 2.26113702,16.9341344 C2.63017598,17.3430695 3.26053442,17.3769812 3.66946949,17.0079422 C4.07840455,16.6389033 4.11231624,16.0085448 3.74327728,15.5996097 C3.05307468,14.8326071 2.50450325,13.8441812 2.2142591,12.714124 C1.73450845,10.845989 2.05766689,8.96289286 2.96829546,7.42390066 C3.87892403,5.88490845 5.37403053,4.69500715 7.24216559,4.2162539 C9.11030066,3.73750066 10.9933968,4.0596617 12.532389,4.97029027 C14.0713812,5.88091884 15.2612825,7.37602533 15.7400357,9.2441604 C15.8557344,9.67803053 16.2447214,9.99320975 16.7075162,9.99320975 L17.9602539,9.99320975 C18.3292929,9.99420715 18.6953396,10.0450747 19.0474227,10.1438175 C19.9061864,10.3841916 20.6821656,10.9068305 21.2317344,11.6877968 C21.8660825,12.5894487 22.0745396,13.6606591 21.8989968,14.6680357 C21.7234539,15.6754123 21.1649084,16.6129708 20.2632565,17.2463214 C19.8124305,17.5634955 19.704711,18.1848773 20.0208877,18.6357033 C20.3370643,19.0865292 20.9594435,19.1942487 21.4102695,18.8780721 L21.4102695,18.8780721 Z" id="path-1"></path>
    </defs>
    <g id="icons/download-gray" stroke="none" stroke-width="1" fill="none" fill-rule="evenodd">
        <mask id="mask-2" fill="white">
            <use xlink:href="#path-1"></use>
        </mask>
        <use id="Shape" fill="#BFBFBF" fill-rule="nonzero" xlink:href="#path-1"></use>
    </g>
</svg>