<?xml version="1.0" encoding="UTF-8"?>
<svg width="24px" height="24px" viewBox="0 0 24 24" version="1.1" xmlns="http://www.w3.org/2000/svg" xmlns:xlink="http://www.w3.org/1999/xlink">
    <title>icons/duration-gray</title>
    <defs>
        <path d="M24,12 C24,8.68690909 22.656,5.68472727 20.4850909,3.51490909 C18.3141818,1.34509091 15.3130909,0 12,0 C8.68690909,0 5.68472727,1.344 3.51490909,3.51490909 C1.34509091,5.68581818 0,8.68690909 0,12 C0,15.3130909 1.344,18.3152727 3.51490909,20.4850909 C5.68581818,22.6549091 8.68690909,24 12,24 C15.3130909,24 18.3152727,22.656 20.4850909,20.4850909 C22.6549091,18.3141818 24,15.3130909 24,12 Z M21.8181818,12 C21.8181818,14.712 20.7207273,17.1643636 18.9425455,18.9425455 C17.1643636,20.7207273 14.712,21.8181818 12,21.8181818 C9.288,21.8181818 6.83563636,20.7207273 5.05745455,18.9425455 C3.27927273,17.1643636 2.18181818,14.712 2.18181818,12 C2.18181818,9.288 3.27927273,6.83563636 5.05745455,5.05745455 C6.83563636,3.27927273 9.288,2.18181818 12,2.18181818 C14.712,2.18181818 17.1643636,3.27927273 18.9425455,5.05745455 C20.7207273,6.83563636 21.8181818,9.288 21.8181818,12 Z M10.9090909,5.45454545 L10.9090909,12 C10.9090909,12.4243636 11.1512727,12.7930909 11.5123636,12.9752727 L15.876,15.1570909 C16.4149091,15.4265455 17.0705455,15.2083636 17.34,14.6694545 C17.6094545,14.1305455 17.3912727,13.4749091 16.8523636,13.2054545 L13.0909091,11.3258182 L13.0909091,5.45454545 C13.0909091,4.85236364 12.6021818,4.36363636 12,4.36363636 C11.3978182,4.36363636 10.9090909,4.85236364 10.9090909,5.45454545 Z" id="path-1"></path>
    </defs>
    <g id="icons/duration-gray" stroke="none" stroke-width="1" fill="none" fill-rule="evenodd">
        <mask id="mask-2" fill="white">
            <use xlink:href="#path-1"></use>
        </mask>
        <use id="Shape" fill="#BFBFBF" fill-rule="nonzero" xlink:href="#path-1"></use>
    </g>
</svg>