<?xml version="1.0" encoding="UTF-8"?>
<svg width="24px" height="24px" viewBox="0 0 24 24" version="1.1" xmlns="http://www.w3.org/2000/svg" xmlns:xlink="http://www.w3.org/1999/xlink">
    <title>icons/filter-gray</title>
    <defs>
        <path d="M20.5290213,3.28520154 L13.3294298,11.7974739 C13.1692936,11.9859335 13.0723404,12.2321292 13.0723404,12.5012015 L13.0723404,20.0417632 L10.893617,18.9524015 L10.893617,12.5012015 C10.8947064,12.2539164 10.8097362,12.0033632 10.6365277,11.7974739 L3.43693617,3.28520154 L20.5290213,3.28520154 Z M22.8765957,1.1064678 L1.0893617,1.1064678 C0.488034043,1.1064678 0,1.59451218 0,2.19583984 C0,2.46491218 0.0969531915,2.71110792 0.257089362,2.8995675 L8.71489362,12.8999079 L8.71489362,19.6256271 C8.71489362,20.0493888 8.95673191,20.417593 9.31731064,20.5995164 L13.6747574,22.7782398 C14.2129021,23.0473122 14.8676085,22.8294398 15.1366809,22.2912952 C15.2151149,22.1322483 15.2521532,21.9633973 15.2510638,21.8043505 L15.2510638,12.8999079 L23.7088681,2.8995675 C24.0977702,2.43985686 24.040034,1.75246963 23.5803234,1.36465686 C23.374434,1.19035899 23.1238809,1.10538877 22.8765957,1.1064678 Z" id="path-1"></path>
    </defs>
    <g id="icons/filter-gray" stroke="none" stroke-width="1" fill="none" fill-rule="evenodd">
        <mask id="mask-2" fill="white">
            <use xlink:href="#path-1"></use>
        </mask>
        <use id="Shape" fill="#BFBFBF" fill-rule="nonzero" xlink:href="#path-1"></use>
    </g>
</svg>