<?xml version="1.0" encoding="UTF-8"?>
<svg width="24px" height="24px" viewBox="0 0 24 24" version="1.1" xmlns="http://www.w3.org/2000/svg" xmlns:xlink="http://www.w3.org/1999/xlink">
    <title>icons/imdb-back</title>
    <g id="icons/imdb-back" stroke="none" stroke-width="1" fill="none" fill-rule="evenodd">
        <path d="M14.40625,10.453125 L14.40625,13.296875 C14.40625,13.859375 14.515625,14.375 13.8125,14.359375 L13.8125,9.53125 C14.5,9.53125 14.40625,9.890625 14.40625,10.453125 Z M19.34375,11.953125 L19.34375,13.84375 C19.34375,14.15625 19.4375,14.671875 18.984375,14.671875 C18.890625,14.671875 18.8125,14.625 18.765625,14.53125 C18.640625,14.234375 18.703125,11.984375 18.703125,11.953125 C18.703125,11.734375 18.640625,11.21875 18.984375,11.21875 C19.40625,11.21875 19.34375,11.640625 19.34375,11.953125 Z M2.8125,15.640625 L4.71875,15.640625 L4.71875,8.265625 L2.8125,8.265625 L2.8125,15.640625 Z M9.59375,15.640625 L11.25,15.640625 L11.25,8.265625 L8.765625,8.265625 L8.328125,11.71875 C8.171875,10.5625 8.015625,9.40625 7.828125,8.265625 L5.359375,8.265625 L5.359375,15.640625 L7.03125,15.640625 L7.03125,10.765625 L7.734375,15.640625 L8.921875,15.640625 L9.59375,10.65625 L9.59375,15.640625 Z M16.234375,10.875 C16.234375,10.40625 16.25,9.90625 16.15625,9.46875 C15.90625,8.171875 14.34375,8.265625 13.328125,8.265625 L11.90625,8.265625 L11.90625,15.640625 C16.875,15.640625 16.234375,15.984375 16.234375,10.875 Z M21.1875,13.953125 L21.1875,11.875 C21.1875,10.875 21.140625,10.140625 19.90625,10.140625 C19.390625,10.140625 19.046875,10.296875 18.703125,10.671875 L18.703125,8.265625 L16.875,8.265625 L16.875,15.640625 L18.59375,15.640625 L18.703125,15.171875 C19.03125,15.5625 19.390625,15.734375 19.90625,15.734375 C21.046875,15.734375 21.1875,14.859375 21.1875,13.953125 Z M24,2.5 L24,21.5 C24,22.875 22.875,24 21.5,24 L2.5,24 C1.125,24 0,22.875 0,21.5 L0,2.5 C0,1.125 1.125,0 2.5,0 L21.5,0 C22.875,0 24,1.125 24,2.5 Z" id="Shape" fill="#DEB522" fill-rule="nonzero"></path>
    </g>
</svg>