<?xml version="1.0" encoding="UTF-8"?>
<svg width="24px" height="24px" viewBox="0 0 24 24" version="1.1" xmlns="http://www.w3.org/2000/svg" xmlns:xlink="http://www.w3.org/1999/xlink">
    <title>icons/imdb-gray</title>
    <defs>
        <path d="M15.1428571,9.93028622 L15.1428571,13.7370552 C15.1428571,14.4900424 15.2857143,15.1802808 14.3673469,15.1593645 L14.3673469,8.69622375 C15.2653061,8.69622375 15.1428571,9.17729895 15.1428571,9.93028622 Z M21.5918367,11.9382523 L21.5918367,14.4691261 C21.5918367,14.8874524 21.7142857,15.5776907 21.122449,15.5776907 C21,15.5776907 20.8979592,15.5149418 20.8367347,15.3894439 C20.6734694,14.992034 20.755102,11.9800849 20.755102,11.9382523 C20.755102,11.6454239 20.6734694,10.9551856 21.122449,10.9551856 C21.6734694,10.9551856 21.5918367,11.519926 21.5918367,11.9382523 Z M0,16.8745021 L2.48979592,16.8745021 L2.48979592,7.0020024 L0,7.0020024 L0,16.8745021 Z M8.85714286,16.8745021 L11.0204082,16.8745021 L11.0204082,7.0020024 L7.7755102,7.0020024 L7.20408163,11.6245076 C7,10.0767004 6.79591837,8.52889325 6.55102041,7.0020024 L3.32653061,7.0020024 L3.32653061,16.8745021 L5.51020408,16.8745021 L5.51020408,10.3486125 L6.42857143,16.8745021 L7.97959184,16.8745021 L8.85714286,10.2021983 L8.85714286,16.8745021 Z M17.5306122,10.4950267 C17.5306122,9.86753728 17.5510204,9.19821526 17.4285714,8.6125585 C17.1020408,6.87650453 15.0612245,7.0020024 13.7346939,7.0020024 L11.877551,7.0020024 L11.877551,16.8745021 C18.3673469,16.8745021 17.5306122,17.334661 17.5306122,10.4950267 Z M24,14.6155403 L24,11.8336707 C24,10.4950267 23.9387755,9.51195996 22.3265306,9.51195996 C21.6530612,9.51195996 21.2040816,9.72112309 20.755102,10.2231146 L20.755102,7.0020024 L18.3673469,7.0020024 L18.3673469,16.8745021 L20.6122449,16.8745021 L20.755102,16.2470127 C21.1836735,16.7699206 21.6530612,17 22.3265306,17 C23.8163265,17 24,15.8286865 24,14.6155403 Z" id="path-1"></path>
    </defs>
    <g id="icons/imdb-gray" stroke="none" stroke-width="1" fill="none" fill-rule="evenodd">
        <mask id="mask-2" fill="white">
            <use xlink:href="#path-1"></use>
        </mask>
        <use id="Shape" fill="#BFBFBF" fill-rule="nonzero" xlink:href="#path-1"></use>
    </g>
</svg>