<?xml version="1.0" encoding="UTF-8"?>
<svg width="24px" height="24px" viewBox="0 0 24 24" version="1.1" xmlns="http://www.w3.org/2000/svg" xmlns:xlink="http://www.w3.org/1999/xlink">
    <title>icons/movie-gray</title>
    <defs>
        <path d="M16.3636364,10.9090909 L7.63636364,10.9090909 L7.63636364,2.18181818 L16.3636364,2.18181818 L16.3636364,10.9090909 Z M7.63636364,13.0909091 L16.3636364,13.0909091 L16.3636364,21.8181818 L7.63636364,21.8181818 L7.63636364,13.0909091 Z M5.45454545,5.45454545 L2.18181818,5.45454545 L2.18181818,3.46909091 C2.18181818,3.11345455 2.32472727,2.79272727 2.55927273,2.55927273 C2.79381818,2.32581818 3.11345455,2.18181818 3.46909091,2.18181818 L5.45454545,2.18181818 L5.45454545,5.45454545 Z M2.18181818,7.63636364 L5.45454545,7.63636364 L5.45454545,10.9090909 L2.18181818,10.9090909 L2.18181818,7.63636364 Z M5.45454545,16.3636364 L2.18181818,16.3636364 L2.18181818,13.0909091 L5.45454545,13.0909091 L5.45454545,16.3636364 Z M2.18181818,18.5454545 L5.45454545,18.5454545 L5.45454545,21.8181818 L3.46909091,21.8181818 C3.11345455,21.8181818 2.79272727,21.6752727 2.55927273,21.4407273 C2.32581818,21.2061818 2.18181818,20.8865455 2.18181818,20.5309091 L2.18181818,18.5454545 Z M21.8181818,16.3636364 L18.5454545,16.3636364 L18.5454545,13.0909091 L21.8181818,13.0909091 L21.8181818,16.3636364 Z M18.5454545,18.5454545 L21.8181818,18.5454545 L21.8181818,20.5309091 C21.8181818,20.8865455 21.6752727,21.2072727 21.4407273,21.4407273 C21.2061818,21.6741818 20.8865455,21.8181818 20.5309091,21.8181818 L18.5454545,21.8181818 L18.5454545,18.5454545 Z M21.8181818,5.45454545 L18.5454545,5.45454545 L18.5454545,2.18181818 L20.5309091,2.18181818 C20.8865455,2.18181818 21.2072727,2.32472727 21.4407273,2.55927273 C21.6741818,2.79381818 21.8181818,3.11345455 21.8181818,3.46909091 L21.8181818,5.45454545 Z M24,6.54545455 L24,3.46909091 C24,2.51127273 23.6105455,1.64290909 22.9843636,1.01563636 C22.3581818,0.388363636 21.4887273,0 20.5309091,0 L3.46909091,0 C2.51127273,0 1.64290909,0.389454545 1.01563636,1.01563636 C0.388363636,1.64181818 0,2.51127273 0,3.46909091 L0,20.5309091 C0,21.4887273 0.389454545,22.3570909 1.01563636,22.9843636 C1.64181818,23.6116364 2.51127273,24 3.46909091,24 L20.5309091,24 C21.4887273,24 22.3570909,23.6105455 22.9843636,22.9843636 C23.6116364,22.3581818 24,21.4887273 24,20.5309091 L24,6.54545455 Z M18.5454545,7.63636364 L21.8181818,7.63636364 L21.8181818,10.9090909 L18.5454545,10.9090909 L18.5454545,7.63636364 Z" id="path-1"></path>
    </defs>
    <g id="icons/movie-gray" stroke="none" stroke-width="1" fill="none" fill-rule="evenodd">
        <mask id="mask-2" fill="white">
            <use xlink:href="#path-1"></use>
        </mask>
        <use id="Shape" fill="#BFBFBF" fill-rule="nonzero" xlink:href="#path-1"></use>
    </g>
</svg>