<?xml version="1.0" encoding="UTF-8"?>
<svg width="24px" height="24px" viewBox="0 0 24 24" version="1.1" xmlns="http://www.w3.org/2000/svg" xmlns:xlink="http://www.w3.org/1999/xlink">
    <title>icons/search</title>
    <defs>
        <path d="M16.8229142,16.6012605 C16.7821778,16.6324119 16.7426396,16.6671576 16.7042995,16.7054977 C16.6659594,16.7438378 16.6324119,16.7821778 16.6000624,16.8241123 C15.0928175,18.2774415 13.0428206,19.1700468 10.7831513,19.1700468 C8.46717005,19.1700468 6.37164431,18.2331108 4.8524181,16.7138846 C3.33319189,15.1946583 2.39625585,13.0991326 2.39625585,10.7831513 C2.39625585,8.46717005 3.33319189,6.37164431 4.8524181,4.8524181 C6.37164431,3.33319189 8.46717005,2.39625585 10.7831513,2.39625585 C13.0991326,2.39625585 15.1946583,3.33319189 16.7138846,4.8524181 C18.2331108,6.37164431 19.1700468,8.46717005 19.1700468,10.7831513 C19.1700468,13.0428206 18.2774415,15.0928175 16.8229142,16.6012605 L16.8229142,16.6012605 Z M23.611507,21.9173541 L19.2083869,17.514234 C20.6832824,15.669117 21.5663027,13.3291732 21.5663027,10.7831513 C21.5663027,7.80580343 20.3585897,5.10881747 18.4080374,3.15826521 C16.4574852,1.20771295 13.7604992,-2.12830273e-15 10.7831513,-2.12830273e-15 C7.80580343,-2.12830273e-15 5.10881747,1.20771295 3.15826521,3.15826521 C1.20771295,5.10881747 0,7.80580343 0,10.7831513 C0,13.7604992 1.20771295,16.4574852 3.15826521,18.4080374 C5.10881747,20.3585897 7.80580343,21.5663027 10.7831513,21.5663027 C13.3291732,21.5663027 15.669117,20.6832824 17.514234,19.2083869 L21.9173541,23.611507 C22.3858222,24.079975 23.1442371,24.079975 23.611507,23.611507 C24.0787769,23.143039 24.079975,22.384624 23.611507,21.9173541 L23.611507,21.9173541 Z" id="path-1"></path>
    </defs>
    <g id="icons/search" stroke="none" stroke-width="1" fill="none" fill-rule="evenodd">
        <mask id="mask-2" fill="white">
            <use xlink:href="#path-1"></use>
        </mask>
        <use id="Shape" fill="#000000" fill-rule="nonzero" xlink:href="#path-1"></use>
        <g id="colors/gray/400" mask="url(#mask-2)" fill="#BFBFBF">
            <rect x="0" y="0" width="24" height="24"></rect>
        </g>
    </g>
</svg>