<?xml version="1.0" encoding="UTF-8"?>
<svg width="24px" height="24px" viewBox="0 0 24 24" version="1.1" xmlns="http://www.w3.org/2000/svg" xmlns:xlink="http://www.w3.org/1999/xlink">
    <title>icons/video-gray</title>
    <defs>
        <path d="M22,8.943 L22,15.057 L17.72,12 L22,8.943 Z M3,4 C2.172,4 1.42,4.337 0.879,4.879 C0.338,5.421 0,6.172 0,7 L0,17 C0,17.828 0.337,18.58 0.879,19.121 C1.421,19.662 2.172,20 3,20 L14,20 C14.828,20 15.58,19.663 16.121,19.121 C16.662,18.579 17,17.828 17,17 L17,13.943 L22.419,17.814 C22.868,18.135 23.493,18.031 23.814,17.582 C23.94,17.404 24.001,17.199 24.0000121,17 L24.0000121,7 C24.0000121,6.448 23.552,6 23,6 C22.782,6 22.58,6.07 22.419,6.186 L17,10.057 L17,7 C17,6.172 16.663,5.42 16.121,4.879 C15.579,4.338 14.828,4 14,4 L3,4 Z M3,6 L14,6 C14.276,6 14.525,6.111 14.707,6.293 C14.889,6.475 15,6.724 15,7 L15,17 C15,17.276 14.889,17.525 14.707,17.707 C14.525,17.889 14.276,18 14,18 L3,18 C2.724,18 2.475,17.889 2.293,17.707 C2.111,17.525 2,17.276 2,17 L2,7 C2,6.724 2.111,6.475 2.293,6.293 C2.475,6.111 2.724,6 3,6 Z" id="path-1"></path>
    </defs>
    <g id="icons/video-gray" stroke="none" stroke-width="1" fill="none" fill-rule="evenodd">
        <mask id="mask-2" fill="white">
            <use xlink:href="#path-1"></use>
        </mask>
        <use id="Shape" fill="#BFBFBF" fill-rule="nonzero" xlink:href="#path-1"></use>
    </g>
</svg>