<?xml version="1.0" encoding="UTF-8"?>
<svg width="24px" height="24px" viewBox="0 0 24 24" version="1.1" xmlns="http://www.w3.org/2000/svg" xmlns:xlink="http://www.w3.org/1999/xlink">
    <title>icons/year-gray</title>
    <defs>
        <path d="M6.45454545,1.09090909 L6.45454545,2.18181818 L4.27272727,2.18181818 C3.36945455,2.18181818 2.54909091,2.54945455 1.95890909,3.14072727 C1.36872727,3.732 1,4.55127273 1,5.45454545 L1,20.7272727 C1,21.6305455 1.36763636,22.4509091 1.95890909,23.0410909 C2.55018182,23.6312727 3.36945455,24 4.27272727,24 L19.5454545,24 C20.4487273,24 21.2690909,23.6323636 21.8592727,23.0410909 C22.4494545,22.4498182 22.8181818,21.6305455 22.8181818,20.7272727 L22.8181818,5.45454545 C22.8181818,4.55127273 22.4505455,3.73090909 21.8592727,3.14072727 C21.268,2.55054545 20.4487273,2.18181818 19.5454545,2.18181818 L17.3636364,2.18181818 L17.3636364,1.09090909 C17.3636364,0.488727273 16.8749091,0 16.2727273,0 C15.6705455,0 15.1818182,0.488727273 15.1818182,1.09090909 L15.1818182,2.18181818 L8.63636364,2.18181818 L8.63636364,1.09090909 C8.63636364,0.488727273 8.14763636,0 7.54545455,0 C6.94327273,0 6.45454545,0.488727273 6.45454545,1.09090909 Z M20.6363636,8.72727273 L3.18181818,8.72727273 L3.18181818,5.45454545 C3.18181818,5.15345455 3.30290909,4.88181818 3.50145455,4.68327273 C3.7,4.48472727 3.97163636,4.36363636 4.27272727,4.36363636 L6.45454545,4.36363636 L6.45454545,5.45454545 C6.45454545,6.05672727 6.94327273,6.54545455 7.54545455,6.54545455 C8.14763636,6.54545455 8.63636364,6.05672727 8.63636364,5.45454545 L8.63636364,4.36363636 L15.1818182,4.36363636 L15.1818182,5.45454545 C15.1818182,6.05672727 15.6705455,6.54545455 16.2727273,6.54545455 C16.8749091,6.54545455 17.3636364,6.05672727 17.3636364,5.45454545 L17.3636364,4.36363636 L19.5454545,4.36363636 C19.8465455,4.36363636 20.1181818,4.48472727 20.3167273,4.68327273 C20.5152727,4.88181818 20.6363636,5.15345455 20.6363636,5.45454545 L20.6363636,8.72727273 Z M3.18181818,10.9090909 L20.6363636,10.9090909 L20.6363636,20.7272727 C20.6363636,21.0283636 20.5152727,21.3 20.3167273,21.4985455 C20.1181818,21.6970909 19.8465455,21.8181818 19.5454545,21.8181818 L4.27272727,21.8181818 C3.97163636,21.8181818 3.7,21.6970909 3.50145455,21.4985455 C3.30290909,21.3 3.18181818,21.0283636 3.18181818,20.7272727 L3.18181818,10.9090909 Z" id="path-1"></path>
    </defs>
    <g id="icons/year-gray" stroke="none" stroke-width="1" fill="none" fill-rule="evenodd">
        <mask id="mask-2" fill="white">
            <use xlink:href="#path-1"></use>
        </mask>
        <use id="Shape" fill="#BFBFBF" fill-rule="nonzero" xlink:href="#path-1"></use>
    </g>
</svg>