<?xml version="1.0" encoding="UTF-8"?>
<svg width="24px" height="24px" viewBox="0 0 24 24" version="1.1" xmlns="http://www.w3.org/2000/svg" xmlns:xlink="http://www.w3.org/1999/xlink">
    <title>icons/youtube-gray</title>
    <defs>
        <path d="M21.5092008,6.62755325 C21.7954554,8.15258182 21.9560372,9.91399481 21.9450658,11.7392416 C21.9640164,13.2632727 21.8223852,14.9977558 21.5092008,16.7472 C21.4523489,16.9546597 21.3595904,17.1491532 21.2379073,17.3207065 C21.0114969,17.6408727 20.6813567,17.884239 20.2913722,17.9939532 C19.6889411,18.1545351 18.1409722,18.268239 16.4244424,18.3340675 C14.2002346,18.4198442 11.9710398,18.4198442 11.9710398,18.4198442 C11.9710398,18.4198442 9.74184498,18.4198442 7.51763718,18.3350649 C5.80110731,18.2692364 4.25313848,18.1565299 3.66167874,17.9979429 C3.45721121,17.9410909 3.26670731,17.8493299 3.09714887,17.730639 C2.78695666,17.5112104 2.54857744,17.1960312 2.42888913,16.8100364 C2.14462939,15.288 1.98604238,13.5325714 1.99701381,11.7133091 C1.97606835,10.1773091 2.11769952,8.42985974 2.43287874,6.66645195 C2.48973069,6.45899221 2.58248913,6.2644987 2.70417225,6.09294545 C2.93058264,5.77277922 3.2607229,5.52941299 3.65070731,5.4196987 C4.25313848,5.25911688 5.80110731,5.14541299 7.51763718,5.07958442 C9.74184498,4.99480519 11.9710398,4.99480519 11.9710398,4.99480519 C11.9710398,4.99480519 14.2002346,4.99480519 16.4254398,5.0726026 C18.1399748,5.13244675 19.6989151,5.23517922 20.2714242,5.37481558 C20.4898554,5.43765195 20.6913307,5.53938701 20.8678709,5.67303896 C21.1740735,5.90443636 21.4044735,6.23258182 21.5092008,6.62855065 L21.5092008,6.62755325 Z M23.4511437,6.16874805 C23.2347073,5.3049974 22.7350086,4.58287792 22.0717359,4.08118442 C21.6997047,3.79991688 21.2778034,3.58846753 20.82598,3.45780779 C19.9303125,3.23837922 18.1369826,3.13564675 16.495258,3.07879481 C14.2341463,3 11.9710398,3 11.9710398,3 C11.9710398,3 9.70494108,3 7.44183459,3.08677403 C5.80409952,3.14961039 4.00079562,3.26131948 3.13604757,3.49271688 C2.2643177,3.73907532 1.55915407,4.26071688 1.07740861,4.93895065 C0.808109911,5.31896104 0.609626794,5.74784416 0.491933287,6.20365714 C0.485948872,6.22759481 0.480961859,6.25252987 0.476972248,6.27447273 C0.134863157,8.16754286 -0.0207316477,10.0576208 0.002208612,11.7412364 C-0.00976021917,13.660239 0.16279043,15.5622857 0.477969651,17.2289455 C0.483954067,17.2598649 0.490935885,17.2907844 0.498915106,17.3167169 C0.743278742,18.1744831 1.26691511,18.8796468 1.94614627,19.3593974 C2.302219,19.6107429 2.70118004,19.8012468 3.12507614,19.9189403 C4.00179303,20.1533299 5.80409952,20.265039 7.44183459,20.3278753 C9.70494108,20.4146494 11.9710398,20.4146494 11.9710398,20.4146494 C11.9710398,20.4146494 14.2371385,20.4146494 16.500245,20.3278753 C18.13798,20.265039 19.9402865,20.1533299 20.806032,19.9219325 C21.6767645,19.675574 22.3829255,19.1539325 22.8636735,18.4756987 C23.1329722,18.0956883 23.3324528,17.6668052 23.4491489,17.2119896 C23.4551333,17.1870545 23.4611177,17.1621195 23.4641099,17.141174 C23.8032268,15.2620675 23.9588216,13.3859532 23.9388735,11.7153039 C23.9508424,9.7953039 23.7782917,7.89225974 23.4631125,6.2256 C23.4591229,6.20565195 23.4551333,6.1857039 23.4511437,6.16874805 Z M10.7242865,13.2742442 L10.7242865,10.1803013 L13.4442034,11.7272727 L10.7242865,13.2742442 Z M10.2196008,15.8555221 L15.9546658,12.5940156 C16.433419,12.3217247 16.6009826,11.7123117 16.3286917,11.2335584 C16.2359333,11.0699844 16.1032787,10.9423169 15.9546658,10.8595325 L10.2196008,7.59802597 C9.74084757,7.32573506 9.13143459,7.4932987 8.85914368,7.97205195 C8.76937744,8.12964156 8.72748653,8.30119481 8.72846655,8.46476883 L8.72846655,14.9877818 C8.72846655,15.5383481 9.1753203,15.9851844 9.72588653,15.9851844 C9.90741381,15.9851844 10.0769722,15.9363117 10.2186034,15.8545247 L10.2196008,15.8555221 Z" id="path-1"></path>
    </defs>
    <g id="icons/youtube-gray" stroke="none" stroke-width="1" fill="none" fill-rule="evenodd">
        <mask id="mask-2" fill="white">
            <use xlink:href="#path-1"></use>
        </mask>
        <use id="Shape" fill="#BFBFBF" fill-rule="nonzero" xlink:href="#path-1"></use>
    </g>
</svg>